<svg xmlns="http://www.w3.org/2000/svg" width="501.087" height="168.117" viewBox="0 0 469.76923 157.60977"><path d="M66.551 113.71h54.286c53.214 0 59.107-28.572 59.107-59.108 0-30.536 35.398-44.602 77.253-44.602h41.854" fill="none" stroke="#000" stroke-width="20"/><path d="M46.551 30h54.286c53.214 0 59.107 28.571 59.107 59.107 0 30.536 35.398 44.602 77.253 44.602h41.854" fill="none" stroke="#000" stroke-width="20"/><path style="isolation:auto;mix-blend-mode:normal" d="M217.983 66.986a56.245 56.245 0 0 1-45.337 65.282 56.245 56.245 0 0 1-65.353-45.235 56.245 56.245 0 0 1 45.133-65.423 56.245 56.245 0 0 1 65.494 45.03" color="#000" overflow="visible" stroke="#fff" stroke-width="3.164" stroke-linecap="round" stroke-linejoin="round"/><text style="line-height:125%;-inkscape-font-specification:'Blogger Sans'" x="226.491" y="-629.14" font-weight="400" font-size="55.069" font-family="Blogger Sans" letter-spacing="2.692" word-spacing="0" fill="#ae81ff" transform="translate(-229.56 691.03)"><tspan x="226.491" y="-629.14">&quot;&quot;</tspan></text><text style="line-height:125%;-inkscape-font-specification:'Blogger Sans'" x="512.604" y="-544.048" font-weight="400" font-size="55.069" font-family="Blogger Sans" letter-spacing="2.692" word-spacing="0" fill="#ae81ff" transform="translate(-229.56 691.03)"><tspan x="512.604" y="-544.048">{}</tspan></text><text style="line-height:125%;-inkscape-font-specification:'Blogger Sans'" x="317.476" y="-688.715" transform="matrix(1.14824 0 0 .8709 -229.56 691.03)" font-weight="400" font-size="63.232" font-family="Blogger Sans" letter-spacing="3.091" word-spacing="0" fill="#fff"><tspan x="317.476" y="-688.715">❱</tspan></text><text style="line-height:125%;-inkscape-font-specification:'Blogger Sans'" x="529.409" y="-671.223" font-weight="400" font-size="27.663" font-family="Blogger Sans" letter-spacing="1.352" word-spacing="0" transform="translate(-229.56 691.03)"><tspan x="529.409" y="-671.223" font-weight="700">PRO-ROUTER</tspan></text></svg>
